<?xml version="1.0" encoding="UTF-8"?>
<svg id="Layer_1" data-name="Layer 1" xmlns="http://www.w3.org/2000/svg" viewBox="0 0 300 100">
  <defs>
    <style>
      .cls-1 {
        fill: #fff;
      }
    </style>
  </defs>
  <g>
    <path class="cls-1" d="M85.43,68.81l-6.32-12.08h-.05v12.08h-10.56v-33.66h15.69c2.73,0,5.06.48,6.99,1.45,1.93.97,3.38,2.28,4.35,3.95.97,1.66,1.45,3.54,1.45,5.63,0,2.25-.63,4.25-1.88,5.99-1.25,1.75-3.05,3-5.4,3.76l7.32,12.88h-11.6ZM79.06,49.7h4.18c1.02,0,1.78-.23,2.28-.69.51-.46.76-1.18.76-2.16,0-.89-.26-1.58-.78-2.09-.52-.51-1.28-.76-2.26-.76h-4.18v5.71Z"/>
    <path class="cls-1" d="M110.91,43.56v4.14h10.46v7.94h-10.46v4.76h11.89v8.42h-22.44v-33.66h22.44v8.42h-11.89Z"/>
    <path class="cls-1" d="M127.86,43.04c1.35-2.6,3.27-4.62,5.78-6.06,2.5-1.44,5.45-2.16,8.84-2.16,2.92,0,5.52.55,7.82,1.64,2.3,1.09,4.17,2.64,5.61,4.64,1.44,2,2.4,4.33,2.87,6.99h-11.12c-.51-1.11-1.23-1.97-2.16-2.59-.93-.62-2-.93-3.21-.93-1.78,0-3.18.67-4.21,2-1.03,1.33-1.55,3.12-1.55,5.37s.51,4.04,1.55,5.37c1.03,1.33,2.43,2,4.21,2,1.2,0,2.27-.31,3.21-.93.94-.62,1.66-1.48,2.16-2.59h11.12c-.47,2.66-1.43,4.99-2.87,6.99-1.44,2-3.31,3.54-5.61,4.64-2.3,1.09-4.91,1.64-7.82,1.64-3.39,0-6.34-.72-8.84-2.16-2.51-1.44-4.43-3.46-5.78-6.06-1.35-2.6-2.02-5.56-2.02-8.89s.67-6.29,2.02-8.89Z"/>
    <path class="cls-1" d="M170.27,66.91c-2.65-1.49-4.75-3.55-6.3-6.18-1.55-2.63-2.33-5.59-2.33-8.89s.78-6.26,2.33-8.89c1.55-2.63,3.65-4.68,6.3-6.16s5.55-2.21,8.73-2.21,6.07.74,8.7,2.21,4.71,3.53,6.25,6.16c1.54,2.63,2.31,5.6,2.31,8.89s-.77,6.26-2.31,8.89c-1.54,2.63-3.63,4.69-6.28,6.18-2.65,1.49-5.54,2.23-8.68,2.23s-6.08-.74-8.73-2.23ZM183.85,57.28c1.14-1.35,1.71-3.16,1.71-5.44s-.57-4.14-1.71-5.49c-1.14-1.35-2.76-2.02-4.85-2.02s-3.76.68-4.9,2.02-1.71,3.18-1.71,5.49.57,4.1,1.71,5.44c1.14,1.35,2.77,2.02,4.9,2.02s3.71-.67,4.85-2.02Z"/>
    <path class="cls-1" d="M227.33,54.48c1.13,1.47,1.69,3.18,1.69,5.11,0,2.95-.98,5.22-2.93,6.82-1.95,1.6-4.75,2.4-8.39,2.4h-17.64v-33.66h17.16c3.42,0,6.12.74,8.08,2.23,1.96,1.49,2.95,3.66,2.95,6.51,0,1.97-.51,3.62-1.54,4.97-1.03,1.35-2.4,2.24-4.11,2.69,2.03.48,3.6,1.45,4.73,2.92ZM210.61,48.27h4.09c.95,0,1.66-.19,2.12-.57.46-.38.69-.97.69-1.76s-.23-1.43-.69-1.83c-.46-.4-1.16-.59-2.12-.59h-4.09v4.75ZM217.53,59.8c.46-.36.69-.96.69-1.78,0-1.62-.94-2.42-2.81-2.42h-4.8v4.75h4.8c.95,0,1.66-.18,2.11-.55Z"/>
    <path class="cls-1" d="M264.86,68.81h-10.56l-11.17-16.93v16.93h-10.56v-33.66h10.56l11.17,17.21v-17.21h10.56v33.66Z"/>
    <path class="cls-1" d="M296.89,54.48c1.13,1.47,1.69,3.18,1.69,5.11,0,2.95-.98,5.22-2.93,6.82-1.95,1.6-4.75,2.4-8.39,2.4h-17.64v-33.66h17.16c3.42,0,6.12.74,8.08,2.23,1.96,1.49,2.95,3.66,2.95,6.51,0,1.97-.51,3.62-1.54,4.97-1.03,1.35-2.4,2.24-4.11,2.69,2.03.48,3.6,1.45,4.73,2.92ZM280.17,48.27h4.09c.95,0,1.66-.19,2.12-.57.46-.38.69-.97.69-1.76s-.23-1.43-.69-1.83c-.46-.4-1.16-.59-2.12-.59h-4.09v4.75ZM287.09,59.8c.46-.36.69-.96.69-1.78,0-1.62-.94-2.42-2.81-2.42h-4.8v4.75h4.8c.95,0,1.66-.18,2.11-.55Z"/>
  </g>
  <path class="cls-1" d="M33.93,21.77c-16.62,0-30.09,13.47-30.09,30.09s13.47,30.09,30.09,30.09,30.09-13.47,30.09-30.09-13.47-30.09-30.09-30.09ZM31.05,63.5l-4.26-9.16c-.77-1.66-2.44-2.73-4.27-2.73h0l-.21.21v11.67h-5.33v-7.18c0-5.53,4.48-10.01,10.01-10.01.66,0,1.96-.31,2.54-.67,2.92-1.8,1.23-6.23-2.13-6.18h-5.14c-2.92-.02-5.29-2.39-5.29-5.31h.08c6.71.36,18.63-2.3,19.49,7.49.32,3.66-.76,6.43-3.85,8.41-.33.21-1.44.57-1.42.91l5.57,12.2c.03.12-.15.34-.21.34h-5.59ZM48.08,67.53c-1.15.89-4.15,2.12-5.57,2.12h-6.36v-5.31h5.38c.31,0,1.65-.38,1.98-.53,1.08-.51,1.67-1.41,1.73-2.61.22-4.72-7.16-3.14-10.05-3.45l-2.95-6.68c1.65-.6,2.82-1.92,3.91-3.23,0,2.47,2,4.47,4.47,4.47h.21c.69,0,2.06-.46,2.66-.84,1.87-1.17,1.83-3.89.02-5.06-.3-.2-1.71-.81-1.99-.81h-4.54c.44-1.73.31-3.55.14-5.31,4.85-.34,11.8.47,13.08,6.15.38,1.68.37,3.79-.35,5.39-.68,1.5-2.04,2.4-3.36,3.28,5.39,1.51,5.66,9.28,1.58,12.42Z"/>
</svg>